<?xml version="1.0" encoding="UTF-8"?>
<svg version="1.1" xmlns="http://www.w3.org/2000/svg" width="128" height="128">
<path d="M0 0 C0.77108597 -0.0049649 1.54217194 -0.00992981 2.33662415 -0.01504517 C4.88873181 -0.02965526 7.4407773 -0.03646712 9.99291992 -0.04199219 C11.76787823 -0.04774491 13.54283652 -0.05350263 15.3177948 -0.05926514 C19.04096771 -0.06977207 22.76411904 -0.07561664 26.48730469 -0.07910156 C31.25213595 -0.0845834 36.01668104 -0.10860603 40.78142262 -0.13707352 C44.44891689 -0.15572167 48.11634256 -0.16090667 51.78388023 -0.16243744 C53.54011282 -0.16545995 55.29634431 -0.17347493 57.05253029 -0.18662262 C59.51310447 -0.20372764 61.9729838 -0.20179212 64.43359375 -0.1953125 C65.15536804 -0.20452728 65.87714233 -0.21374207 66.62078857 -0.22323608 C71.28049366 -0.18490685 74.44072931 0.73310572 78.41088867 3.16113281 C79.87182617 4.88769531 79.87182617 4.88769531 80.78588867 6.78613281 C81.10299805 7.39714844 81.42010742 8.00816406 81.74682617 8.63769531 C82.75191927 12.45704907 82.53449031 16.23440392 82.41088867 20.16113281 C82.98532715 20.14542236 83.55976562 20.12971191 84.15161133 20.11352539 C86.77960176 20.05077768 89.40743404 20.01201775 92.03588867 19.97363281 C92.93952148 19.94849609 93.8431543 19.92335938 94.77416992 19.89746094 C100.04890035 19.83970841 103.95473433 20.00069104 108.41088867 23.16113281 C111.83826624 27.48658046 111.82164605 31.60059057 111.75146484 36.89868164 C111.75190292 37.76747955 111.752341 38.63627747 111.75279236 39.53140259 C111.75070769 42.39388756 111.7273918 45.25578181 111.70385742 48.11816406 C111.69826032 50.10641663 111.69399076 52.09467333 111.69099426 54.08293152 C111.67955448 59.30922929 111.65009462 64.53527589 111.61688232 69.76147461 C111.58616285 75.09713341 111.5724849 80.43283289 111.55737305 85.76855469 C111.5252242 96.23285759 111.4740382 106.69697429 111.41088867 117.16113281 C106.63964844 118.25531006 106.63964844 118.25531006 104.58081055 117.40771484 C104.01942383 116.9989209 103.45803711 116.59012695 102.87963867 116.16894531 C102.2325293 115.71003906 101.58541992 115.25113281 100.91870117 114.77832031 C100.25612305 114.28589844 99.59354492 113.79347656 98.91088867 113.28613281 C96.87950895 111.82685595 94.84782084 110.37276466 92.79199219 108.94799805 C90.41088867 107.16113281 90.41088867 107.16113281 87.98095703 104.7980957 C76.82045656 95.04049725 63.02449708 97.07939321 48.97338867 97.34863281 C45.12782663 97.39511578 41.28307077 97.42850058 37.4372406 97.43952942 C35.05639697 97.44904128 32.67551342 97.48019545 30.29530334 97.53593445 C24.04082572 97.59003231 20.07061737 97.54369931 15.41088867 93.16113281 C13.54231865 89.55285967 12.35011502 86.09037332 11.41088867 82.16113281 C10.75604492 82.64582031 10.10120117 83.13050781 9.42651367 83.62988281 C6.43526124 85.82684787 3.42576298 87.99670126 0.41088867 90.16113281 C-0.65387695 90.93585938 -1.71864258 91.71058594 -2.81567383 92.50878906 C-3.8546582 93.2396875 -4.89364258 93.97058594 -5.96411133 94.72363281 C-7.39883789 95.74650391 -7.39883789 95.74650391 -8.86254883 96.79003906 C-12.08675703 98.41138158 -13.1972 98.01390951 -16.58911133 97.16113281 C-16.72826863 85.67802579 -16.83481248 74.1951201 -16.89998436 62.7113409 C-16.93126742 57.37862759 -16.97368554 52.0464921 -17.04174805 46.71411133 C-17.10704767 41.56584068 -17.14284013 36.41812501 -17.15837479 31.26947212 C-17.16944205 29.30745268 -17.19105449 27.34546285 -17.22349167 25.38368034 C-17.26719663 22.63036893 -17.27303968 19.87933615 -17.27026367 17.12573242 C-17.29183533 16.31868362 -17.31340698 15.51163483 -17.33563232 14.68013 C-17.27656263 9.24809814 -15.85411068 6.4530082 -12.17063332 2.47487736 C-8.59774997 -0.49305862 -4.38587023 0.00673601 0 0 Z M-9.58911133 10.16113281 C-11.10204855 13.69358813 -10.70907133 17.62465385 -10.70263672 21.40820312 C-10.70278275 22.13055145 -10.70292877 22.85289978 -10.70307922 23.59713745 C-10.70238416 25.97787509 -10.69461083 28.35853389 -10.68676758 30.73925781 C-10.68490195 32.39263873 -10.68347873 34.04602019 -10.68247986 35.69940186 C-10.67866606 40.04607679 -10.66884548 44.39271818 -10.65777588 48.73937988 C-10.64753731 53.17683458 -10.642977 57.6142947 -10.63793945 62.05175781 C-10.62722219 70.75489818 -10.61015942 79.45801132 -10.58911133 88.16113281 C-4.68043734 84.53425009 0.69846512 80.92947218 5.85229492 76.27832031 C15.62378084 68.80465879 29.7561161 71.0829038 41.34838867 71.28613281 C45.12256561 71.31985448 48.89622416 71.34071747 52.67054749 71.34616089 C55.00680771 71.35287202 57.34310532 71.3775371 59.67893982 71.42263794 C67.48500456 71.52911916 67.48500456 71.52911916 74.41088867 68.16113281 C75.40535476 65.17773455 75.5545246 63.15223253 75.58789062 60.03466797 C75.60072586 58.98993317 75.6135611 57.94519836 75.62678528 56.86880493 C75.63417221 55.74066376 75.64155914 54.61252258 75.64916992 53.45019531 C75.66127754 51.70976456 75.66127754 51.70976456 75.67362976 49.93417358 C75.68746615 47.47794081 75.69819029 45.02168884 75.70605469 42.56542969 C75.72328884 38.80789905 75.76718302 35.05124332 75.8112793 31.29394531 C75.82140437 28.90853512 75.82992105 26.52311745 75.83666992 24.13769531 C75.86293205 22.45155624 75.86293205 22.45155624 75.88972473 20.73135376 C75.88679916 19.68031464 75.8838736 18.62927551 75.88085938 17.54638672 C75.88965874 16.16430527 75.88965874 16.16430527 75.89863586 14.75430298 C75.22563513 11.17620872 74.11085451 9.60078785 71.41088867 7.16113281 C68.71447854 6.66496684 66.64467612 6.49482913 63.9519043 6.54589844 C63.20672043 6.54034943 62.46153656 6.53480042 61.69377136 6.52908325 C59.23423651 6.51728677 56.77654422 6.54155952 54.31713867 6.56738281 C52.60607996 6.569094 50.89501862 6.56902815 49.18395996 6.56726074 C45.59935395 6.56891397 42.01537335 6.58761189 38.4309082 6.61914062 C33.83732053 6.65881858 29.24455202 6.663186 24.6508255 6.6556778 C21.11802676 6.65260748 17.58541201 6.66473075 14.05265808 6.68180847 C12.3589951 6.68883721 10.66531126 6.69196316 8.97163391 6.69111633 C6.60399733 6.69291517 4.23734015 6.71430299 1.86987305 6.74121094 C1.17053146 6.73828033 0.47118988 6.73534973 -0.24934387 6.73233032 C-4.27305357 6.80284872 -6.7993901 7.14869467 -9.58911133 10.16113281 Z " fill="#000000" transform="translate(16.589111328125,4.8388671875)"/>
<path d="M0 0 C1.88689293 -0.00472824 1.88689293 -0.00472824 3.81190491 -0.009552 C5.19027745 -0.00776236 6.56864968 -0.00571144 7.94702148 -0.00341797 C9.35424313 -0.00409126 10.76146467 -0.0050615 12.16868591 -0.00631714 C15.11849067 -0.00779242 18.06826516 -0.00564467 21.01806641 -0.00097656 C24.80692479 0.00472587 28.59571242 0.00143742 32.38456821 -0.00454903 C35.29010048 -0.00815475 38.19561584 -0.0070161 41.10114861 -0.00442123 C42.49865668 -0.00375227 43.89616626 -0.00457934 45.29367256 -0.00690079 C47.24265643 -0.00942802 49.19164565 -0.00489609 51.140625 0 C52.25156021 0.00079559 53.36249542 0.00159119 54.50709534 0.00241089 C57.00561523 0.12939453 57.00561523 0.12939453 58.00561523 1.12939453 C58.13061523 3.62939453 58.13061523 3.62939453 58.00561523 6.12939453 C56.20299001 7.93201975 53.46184514 7.25708156 51.03295898 7.25878906 C49.75493408 7.26194122 48.47690918 7.26509338 47.16015625 7.26834106 C45.75447556 7.26655128 44.34879519 7.26450033 42.94311523 7.26220703 C41.5120441 7.26288011 40.08097308 7.26385018 38.64990234 7.2651062 C35.64704299 7.26658297 32.64421333 7.2644293 29.64135742 7.25976562 C25.78408952 7.25406834 21.9268912 7.25734745 18.06962585 7.26333809 C15.11347933 7.26694427 12.15734941 7.26580486 9.20120239 7.2632103 C7.77857454 7.26254119 6.35594521 7.2633689 4.93331909 7.26568985 C2.9483035 7.26821727 0.96328265 7.26368496 -1.02172852 7.25878906 C-2.71930298 7.25759567 -2.71930298 7.25759567 -4.45117188 7.25637817 C-6.99438477 7.12939453 -6.99438477 7.12939453 -7.99438477 6.12939453 C-8.03502309 4.46322338 -8.03710577 2.79551358 -7.99438477 1.12939453 C-5.25369271 -0.2409515 -3.06759144 0.00219528 0 0 Z " fill="#000000" transform="translate(23.994384765625,39.87060546875)"/>
<path d="M0 0 C1.91703735 -0.00472824 1.91703735 -0.00472824 3.87280273 -0.009552 C5.27848342 -0.00776222 6.6841638 -0.00571127 8.08984375 -0.00341797 C9.52091488 -0.00409105 10.9519859 -0.00506111 12.38305664 -0.00631714 C15.38591599 -0.00779391 18.38874565 -0.00564023 21.39160156 -0.00097656 C25.24886946 0.00472073 29.10606779 0.00144161 32.96333313 -0.00454903 C35.91947966 -0.00815521 38.87560958 -0.00701579 41.83175659 -0.00442123 C43.25438444 -0.00375212 44.67701378 -0.00457984 46.09963989 -0.00690079 C48.08465549 -0.0094282 50.06967634 -0.00489589 52.0546875 0 C53.75226196 0.00119339 53.75226196 0.00119339 55.48413086 0.00241089 C58.02734375 0.12939453 58.02734375 0.12939453 59.02734375 1.12939453 C59.06798207 2.79556568 59.07006475 4.46327548 59.02734375 6.12939453 C56.31237909 7.48687686 54.18000802 7.25657254 51.140625 7.25878906 C49.90594482 7.26194122 48.67126465 7.26509338 47.39916992 7.26834106 C46.04606084 7.26655122 44.69295208 7.26450026 43.33984375 7.26220703 C41.95743798 7.2628804 40.57503232 7.26385071 39.19262695 7.2651062 C36.29409662 7.2665816 33.39559707 7.26443367 30.49707031 7.25976562 C26.77781218 7.25406842 23.05862621 7.25734826 19.33937073 7.26333809 C16.48441014 7.26694795 13.62946672 7.26580315 10.77450562 7.2632103 C9.40294384 7.26254221 8.03138052 7.26336535 6.65982056 7.26568985 C4.74456817 7.26822327 2.82931033 7.26367872 0.9140625 7.25878906 C-0.17688721 7.25799347 -1.26783691 7.25719788 -2.3918457 7.25637817 C-4.97265625 7.12939453 -4.97265625 7.12939453 -6.97265625 6.12939453 C-7.01537725 4.46327548 -7.01329457 2.79556568 -6.97265625 1.12939453 C-5.17003103 -0.67323069 -2.42888615 0.0017075 0 0 Z " fill="#000000" transform="translate(22.97265625,55.87060546875)"/>
<path d="M0 0 C0.82290527 0.00202423 1.64581055 0.00404846 2.49365234 0.00613403 C3.33331543 0.00517731 4.17297852 0.00422058 5.03808594 0.00323486 C6.81689529 0.00255306 8.59570712 0.00440737 10.37451172 0.00857544 C13.10699011 0.01392371 15.83930411 0.00863048 18.57177734 0.00222778 C20.29573604 0.00288856 22.01969464 0.00416973 23.74365234 0.00613403 C24.56655762 0.0041098 25.38946289 0.00208557 26.23730469 0 C32.0037018 0.02399599 32.0037018 0.02399599 33.11865234 1.13894653 C33.24365234 3.63894653 33.24365234 3.63894653 33.11865234 6.13894653 C31.30761248 7.94998639 28.82559773 7.26754591 26.41542053 7.27789307 C25.61752609 7.27586884 24.81963165 7.2738446 23.99755859 7.27175903 C22.77491554 7.27319412 22.77491554 7.27319412 21.52757263 7.2746582 C19.80003787 7.27534006 18.07250057 7.27348537 16.3449707 7.26931763 C13.69590506 7.26397628 11.0470095 7.26925885 8.39794922 7.27566528 C6.72281863 7.27500437 5.04768816 7.27372293 3.37255859 7.27175903 C2.17875328 7.27479538 2.17875328 7.27479538 0.96083069 7.27789307 C-4.65143677 7.25390197 -4.65143677 7.25390197 -6.88134766 6.13894653 C-6.92406866 4.47282748 -6.92198598 2.80511768 -6.88134766 1.13894653 C-5.03858257 -0.70381855 -2.45171007 0.01020242 0 0 Z " fill="#000000" transform="translate(22.88134765625,24.861053466796875)"/>
</svg>
