<?xml version="1.0" encoding="UTF-8"?>
<svg version="1.1" xmlns="http://www.w3.org/2000/svg" width="512" height="512">
<path d="M0 0 C0.92115601 -0.00671722 1.84231201 -0.01343445 2.79138184 -0.02035522 C5.82744794 -0.03930498 8.86329255 -0.04325812 11.89941406 -0.04541016 C14.01922698 -0.05184092 16.13903902 -0.05856948 18.2588501 -0.06558228 C22.70058244 -0.07754802 27.14223706 -0.08126389 31.58398438 -0.08007812 C37.25755027 -0.07987515 42.93061406 -0.10715866 48.60406113 -0.14162254 C52.9828721 -0.16393312 57.36156313 -0.16791436 61.74042511 -0.16685867 C63.8310748 -0.16920908 65.92172808 -0.17800081 68.01232147 -0.19352341 C70.94606484 -0.21326438 73.87873694 -0.20731316 76.8125 -0.1953125 C77.66479187 -0.20655151 78.51708374 -0.21779053 79.39520264 -0.22937012 C88.00625563 -0.14049849 95.79210012 2.66450418 102.13378906 8.58740234 C109.77180842 17.0827504 110.96333282 25.53581051 110.98388672 36.62988281 C110.99895515 38.48925224 110.99895515 38.48925224 111.014328 40.38618469 C111.03986431 43.77212146 111.05675316 47.15789175 111.06975603 50.54388571 C111.08542213 54.08733953 111.1122012 57.63070921 111.13778687 61.17410278 C111.18451321 67.87811384 111.22128697 74.58214083 111.25445974 81.28623116 C111.29272464 88.92110177 111.34212331 96.55588775 111.3924439 104.19068694 C111.49567232 119.89057251 111.58496216 135.59050559 111.66503906 151.29052734 C113.25433001 148.59142866 114.84314693 145.89205123 116.43188477 143.19262695 C116.87758064 142.43571312 117.32327652 141.67879929 117.78247833 140.89894867 C121.50692894 134.56989159 125.19048497 128.218418 128.85253906 121.85302734 C130.14809186 119.60431784 131.44366538 117.35562027 132.73925781 115.10693359 C133.38942871 113.97787598 134.03959961 112.84881836 134.70947266 111.68554688 C138.47730233 105.14429351 142.25016594 98.60593882 146.02563477 92.0690918 C149.2364016 86.50832762 152.43845853 80.94277426 155.62597656 75.36865234 C159.27596718 68.99179762 162.95564753 62.63300448 166.66503906 56.29052734 C167.12136719 55.50564941 167.57769531 54.72077148 168.04785156 53.91210938 C173.52656966 44.57201488 178.96368624 37.02885297 189.54003906 33.35302734 C205.00040617 29.52975263 216.62618333 35.90053555 229.72753906 43.60302734 C230.95011525 44.31301369 232.17318844 45.0221448 233.39672852 45.73046875 C235.91289603 47.18865678 238.42626901 48.65149168 240.9375 50.11816406 C245.62912886 52.85619293 250.34017421 55.5600251 255.05029297 58.26611328 C259.30195892 60.71162275 263.54614747 63.16993749 267.79003906 65.62890625 C270.46275964 67.17361891 273.1411246 68.70799849 275.82128906 70.23974609 C277.33188664 71.11052607 278.84231714 71.98159601 280.35253906 72.85302734 C281.00504639 73.22218262 281.65755371 73.59133789 282.32983398 73.97167969 C288.34149084 77.46344707 294.23665647 81.4690885 297.47753906 87.79052734 C297.85523438 88.50208984 298.23292969 89.21365234 298.62207031 89.94677734 C302.44621061 98.54035104 303.21740252 107.49607892 300.29003906 116.54052734 C297.35220091 123.64623276 293.19783727 130.12169971 289.2265625 136.68212891 C286.24640322 141.66024363 283.36919222 146.69817205 280.47753906 151.72802734 C279.18207381 153.97678729 277.88649954 156.22548443 276.59082031 158.47412109 C275.94064941 159.60317871 275.29047852 160.73223633 274.62060547 161.89550781 C271.47171852 167.36222715 268.31819527 172.82626977 265.16503906 178.29052734 C263.92934323 180.43244361 262.69366623 182.57437074 261.45800781 184.71630859 C259.16254449 188.69515166 256.86680492 192.67383507 254.57070923 196.65231323 C253.53830429 198.44119652 252.5059595 200.23011452 251.47363281 202.01904297 C250.17817958 204.26390371 248.88261336 206.50869925 247.58691406 208.75341797 C244.60195992 213.92624509 241.6225859 219.10197744 238.66503906 224.29052734 C256.46584597 214.39944708 256.46584597 214.39944708 274.07910156 204.18041992 C280.39175416 200.43828306 286.74408996 196.76673415 293.10253906 193.10302734 C294.19961182 192.47082275 295.29668457 191.83861816 296.42700195 191.18725586 C298.68738245 189.88504985 300.94788215 188.58305071 303.20849609 187.28125 C307.86296493 184.60060733 312.51635562 181.91809854 317.16918945 179.23461914 C319.34136248 177.9818478 321.5137122 176.72938275 323.6862793 175.47729492 C324.68731689 174.90003662 325.68835449 174.32277832 326.71972656 173.72802734 C327.69321045 173.16672119 328.66669434 172.60541504 329.66967773 172.02709961 C333.83600201 169.61165706 337.98439439 167.1658364 342.13061523 164.71606445 C349.91986383 160.3348466 359.02956241 160.06669821 367.66894531 161.94287109 C379.87954132 165.89985144 385.25197125 174.12215679 391.26611328 184.81396484 C392.83924706 187.59893326 394.43971669 190.36710555 396.04394531 193.13427734 C398.59554811 197.53691694 401.13795073 201.94465642 403.67285156 206.35693359 C406.34092196 210.99816869 409.02356239 215.63041318 411.71972656 220.25537109 C433.57808577 257.8060188 433.57808577 257.8060188 429.60253906 273.41552734 C425.59235312 284.953926 416.77433673 290.44449914 406.66503906 296.29052734 C405.68776855 296.85658691 404.71049805 297.42264648 403.70361328 298.00585938 C397.20704452 301.75556331 390.68933548 305.46693024 384.16389465 309.16604614 C377.93819299 312.69764816 371.73708377 316.27140077 365.54003906 319.85302734 C363.40592762 321.0861057 361.27181303 322.31917861 359.13769531 323.55224609 C357.55045654 324.46949463 357.55045654 324.46949463 355.93115234 325.40527344 C352.55142818 327.3561054 349.16910346 329.3023624 345.78613281 331.24755859 C344.07611084 332.23163696 344.07611084 332.23163696 342.33154297 333.2355957 C340.1898926 334.46792546 338.04769492 335.69930487 335.90478516 336.92944336 C330.16083492 340.23686354 324.45503924 343.60173717 318.77514648 347.01757812 C318.08786217 347.43044571 317.40057785 347.84331329 316.69246674 348.26869202 C315.01643285 349.2755966 313.34070406 350.28300899 311.66503906 351.29052734 C312.31034513 351.2919939 312.95565121 351.29346046 313.62051201 351.29497147 C329.35487078 351.33209575 345.08897287 351.39118451 360.82314873 351.47443008 C368.43223274 351.5141635 376.04121419 351.54658479 383.65039062 351.56152344 C390.28603457 351.57456965 396.9214523 351.60160949 403.55696881 351.64514041 C407.06733113 351.66768902 410.57741513 351.68344203 414.08785629 351.68241119 C418.01599631 351.6815208 421.94357176 351.71188605 425.87158203 351.74462891 C427.02317307 351.73959854 428.1747641 351.73456818 429.36125183 351.72938538 C438.88053425 351.85174939 447.04131275 353.96329711 454.13378906 360.58740234 C460.86670342 368.07605198 462.9659703 375.7494183 462.95556641 385.62548828 C462.96228363 386.54664429 462.96900085 387.46780029 462.97592163 388.41687012 C462.99487138 391.45293622 462.99882452 394.48878083 463.00097656 397.52490234 C463.00740732 399.64471527 463.01413589 401.7645273 463.02114868 403.88433838 C463.03311443 408.32607072 463.0368303 412.76772534 463.03564453 417.20947266 C463.03544156 422.88303855 463.06272507 428.55610235 463.09718895 434.22954941 C463.11949952 438.60836039 463.12348077 442.98705141 463.12242508 447.36591339 C463.12477549 449.45656308 463.13356722 451.54721637 463.14908981 453.63780975 C463.16883078 456.57155312 463.16287956 459.50422522 463.15087891 462.43798828 C463.16211792 463.29028015 463.17335693 464.14257202 463.18493652 465.02069092 C463.09606489 473.63174392 460.29106223 481.4175884 454.36816406 487.75927734 C447.65721335 493.79297615 440.5724084 496.53753693 431.53429508 496.54779625 C430.83625601 496.55130232 430.13821693 496.5548084 429.41902515 496.55842072 C427.08038217 496.56772331 424.74198884 496.56281437 422.40333557 496.55795288 C420.70942782 496.56168975 419.01552179 496.56629142 417.3216185 496.57168353 C412.66666563 496.58392506 408.01178457 496.58365168 403.35681927 496.58129478 C398.33612975 496.58088688 393.31546333 496.59192334 388.29478455 496.60140991 C378.45663245 496.61802882 368.61850432 496.62351992 358.78033937 496.62463467 C350.78051165 496.62558502 342.78069184 496.6296947 334.78086662 496.63603592 C312.09323474 496.65365323 289.40562179 496.66287439 266.71798301 496.66137497 C265.49467411 496.66129506 264.2713652 496.66121515 263.01098633 496.66113281 C261.78618071 496.66105105 260.56137509 496.66096929 259.29945415 496.66088505 C239.46416671 496.66007272 219.62895531 496.67919577 199.79368985 496.70740955 C179.42042849 496.73615942 159.04720417 496.74994858 138.673922 496.74822199 C127.23868821 496.74755867 115.80353406 496.75302548 104.36831856 496.77457809 C94.62835256 496.79281788 84.88850227 496.79711449 75.14852656 496.78355925 C70.18261714 496.77704284 65.21692954 496.77686418 60.25104141 496.79426575 C55.69646982 496.81006109 51.14229472 496.80706725 46.58773243 496.78969748 C44.94835381 496.78664167 43.30894511 496.79020588 41.66960198 496.80141763 C21.62387433 496.92932884 3.48292835 491.62859131 -11.25830078 477.49047852 C-26.29138351 462.47538409 -33.69033643 445.31766267 -33.74085325 424.00484931 C-33.73506021 422.42778221 -33.72897929 420.85071613 -33.72264099 419.27365112 C-33.72682023 417.57100007 -33.73230097 415.86835181 -33.7389608 414.16570866 C-33.75335614 409.51462244 -33.7491893 404.86371431 -33.74179399 400.21261859 C-33.73705008 395.18598968 -33.74958278 390.15939863 -33.7598114 385.13278198 C-33.77697925 375.29711626 -33.7778438 365.46151448 -33.7725985 355.62583767 C-33.76855277 347.63135147 -33.77000513 339.63688413 -33.77534676 331.64239883 C-33.77609518 330.50346311 -33.7768436 329.36452739 -33.7776147 328.19107846 C-33.77914621 325.87719018 -33.78068456 323.5633019 -33.78222967 321.24941362 C-33.79594675 299.56758175 -33.79052198 277.88578599 -33.77904446 256.20395495 C-33.76910704 236.37213446 -33.78206297 216.54040721 -33.80597865 196.7086011 C-33.83036343 176.33403962 -33.8399794 155.95952158 -33.83332592 135.5849458 C-33.82983309 124.1505246 -33.8320704 112.71617514 -33.84957695 101.28176498 C-33.86429087 91.55094467 -33.8649446 81.82024666 -33.84750604 72.08942877 C-33.83898817 67.12612681 -33.83686597 62.16304342 -33.85215759 57.19975281 C-33.86599038 52.65369281 -33.86125965 48.10803897 -33.84191836 43.56200255 C-33.83815382 41.92020345 -33.8410934 40.27837192 -33.85153001 38.63660167 C-33.91816142 27.34967007 -33.1107184 17.465202 -25.03808594 8.82177734 C-17.5494363 2.08886299 -9.87606998 -0.01040389 0 0 Z M-13.27246094 22.04052734 C-20.05912209 32.73466007 -17.33496094 43.31127363 -17.33496094 56.29052734 C19.62503906 56.29052734 56.58503906 56.29052734 94.66503906 56.29052734 C96.33767172 37.09713163 96.33767172 37.09713163 88.91503906 20.35302734 C83.11760016 16.67388343 77.41326519 15.99229635 70.66943359 16.01586914 C69.9025824 16.01075821 69.1357312 16.00564728 68.34564209 16.00038147 C65.82963083 15.98656743 63.31389606 15.98743612 60.79785156 15.98974609 C59.0357961 15.98585448 57.27374157 15.98151885 55.51168823 15.97676086 C51.82498123 15.96931611 48.13837001 15.96957711 44.45166016 15.97485352 C39.74550389 15.98064377 35.03974175 15.96371943 30.33365059 15.94050884 C26.69605242 15.9257204 23.05854805 15.92490677 19.42092514 15.92801857 C17.68671768 15.92750786 15.95250463 15.92231745 14.21832657 15.91220665 C-0.71850156 15.23895219 -0.71850156 15.23895219 -13.27246094 22.04052734 Z M188.31738281 54.86474609 C185.24736775 58.65347074 182.80227705 62.77173648 180.35253906 66.97802734 C179.89814453 67.73664063 179.44375 68.49525391 178.97558594 69.27685547 C178.54697266 70.00710937 178.11835938 70.73736328 177.67675781 71.48974609 C177.28963623 72.1480542 176.90251465 72.8063623 176.50366211 73.48461914 C175.45444919 75.41216117 175.45444919 75.41216117 175.66503906 78.29052734 C176.37708496 78.6966626 177.08913086 79.10279785 177.82275391 79.52124023 C194.03781495 88.77235654 210.23045546 98.06086923 226.39453125 107.40087891 C234.21665342 111.92037917 242.04072988 116.43648284 249.86816406 120.94677734 C253.36213559 122.9601756 256.85244208 124.97948784 260.33691406 127.00927734 C261.61294776 127.74887442 262.8889886 128.48845918 264.16503906 129.22802734 C265.72738281 130.13875 265.72738281 130.13875 267.32128906 131.06787109 C269.51999405 132.44469918 269.51999405 132.44469918 271.66503906 132.29052734 C273.86023751 128.64024645 276.01575202 124.96799769 278.16503906 121.29052734 C278.78507812 120.26056641 279.40511719 119.23060547 280.04394531 118.16943359 C283.48830321 112.22696997 285.61840245 108.19069019 284.66503906 101.29052734 C281.36933468 91.95269827 272.03153266 88.00211817 263.91503906 83.41552734 C262.17444902 82.42173079 260.43386403 81.42792527 258.69358826 80.43357849 C256.88902977 79.40346347 255.083064 78.37585143 253.27685547 77.34863281 C247.53834665 74.08230486 241.82122439 70.77890944 236.10253906 67.47802734 C235.02512451 66.85734375 233.94770996 66.23666016 232.83764648 65.59716797 C225.74399172 61.5066226 218.673362 57.37907049 211.64916992 53.17016602 C203.30743682 48.20960388 195.36359552 47.13853282 188.31738281 54.86474609 Z M-17.33496094 72.29052734 C-17.33496094 85.49052734 -17.33496094 98.69052734 -17.33496094 112.29052734 C19.62503906 112.29052734 56.58503906 112.29052734 94.66503906 112.29052734 C94.66503906 99.09052734 94.66503906 85.89052734 94.66503906 72.29052734 C57.70503906 72.29052734 20.74503906 72.29052734 -17.33496094 72.29052734 Z M165.66503906 92.29052734 C163.76257186 95.68600181 161.8603196 99.08159661 159.95825195 102.47729492 C158.99929538 104.18918877 158.04017691 105.90099192 157.08105469 107.61279297 C153.5974116 113.83228141 150.12085851 120.05553124 146.66503906 126.29052734 C147.3333374 126.66226074 148.00163574 127.03399414 148.69018555 127.41699219 C171.27453026 139.99075878 171.27453026 139.99075878 182.07910156 146.40063477 C190.59393421 151.4482227 199.18037176 156.37159473 207.75878906 161.31005859 C211.90030857 163.69451592 216.03819763 166.08493649 220.17076111 168.48487854 C222.56962644 169.8779319 224.96961978 171.26903574 227.36965942 172.6600647 C229.07328409 173.64855283 230.77530431 174.63980449 232.47729492 175.63110352 C233.50733643 176.22769775 234.53737793 176.82429199 235.59863281 177.43896484 C236.96072876 178.23052979 236.96072876 178.23052979 238.3503418 179.03808594 C240.71245407 180.40263244 240.71245407 180.40263244 243.66503906 181.29052734 C245.56750627 177.89505287 247.46975853 174.49945808 249.37182617 171.10375977 C250.33078275 169.39186592 251.28990121 167.68006276 252.24902344 165.96826172 C255.73266652 159.74877328 259.20921961 153.52552345 262.66503906 147.29052734 C261.95299316 146.88439209 261.24094727 146.47825684 260.50732422 146.05981445 C244.29051248 136.80769933 228.09652308 127.51757841 211.93115234 118.17578125 C208.55142818 116.22494929 205.16910346 114.27869228 201.78613281 112.33349609 C199.51651089 111.0276641 197.24697819 109.721677 194.97753906 108.41552734 C193.8939209 107.79210449 192.81030273 107.16868164 191.69384766 106.52636719 C185.0254916 102.68046509 178.39100522 98.7858596 171.84985352 94.7265625 C168.97125292 92.84809153 168.97125292 92.84809153 165.66503906 92.29052734 Z M-17.33496094 128.29052734 C-17.33496094 141.49052734 -17.33496094 154.69052734 -17.33496094 168.29052734 C19.62503906 168.29052734 56.58503906 168.29052734 94.66503906 168.29052734 C94.66503906 155.09052734 94.66503906 141.89052734 94.66503906 128.29052734 C57.70503906 128.29052734 20.74503906 128.29052734 -17.33496094 128.29052734 Z M137.66503906 141.29052734 C137.22635498 142.05196045 136.7876709 142.81339355 136.33569336 143.59790039 C134.69786357 146.44022698 133.05963554 149.28232327 131.42114258 152.12426758 C130.7139531 153.3510644 130.00691949 154.57795109 129.30004883 155.80493164 C128.28020171 157.57511026 127.25978249 159.34495803 126.23925781 161.11474609 C125.62655029 162.17781982 125.01384277 163.24089355 124.38256836 164.33618164 C123.27388669 166.24324019 122.12897449 168.1298986 120.94165039 169.98901367 C119.42250907 172.28912399 119.42250907 172.28912399 119.66503906 175.29052734 C120.23609375 175.61102051 120.80714844 175.93151367 121.39550781 176.26171875 C133.4750613 183.04806567 145.50306291 189.91346504 157.46118164 196.91162109 C168.11809831 203.14729818 178.81093583 209.31979445 189.51416016 215.47558594 C192.64678616 217.28001347 195.77530944 219.09139501 198.90332031 220.90380859 C200.82378526 222.01206863 202.74435284 223.12015084 204.66503906 224.22802734 C205.99184692 224.99977295 205.99184692 224.99977295 207.34545898 225.78710938 C208.15217041 226.25101074 208.95888184 226.71491211 209.79003906 227.19287109 C210.49386719 227.60013428 211.19769531 228.00739746 211.92285156 228.42700195 C213.6396233 229.4385597 213.6396233 229.4385597 215.66503906 229.29052734 C216.10372314 228.52909424 216.54240723 227.76766113 216.99438477 226.9831543 C218.63221456 224.14082771 220.27044258 221.29873142 221.90893555 218.45678711 C222.61612502 217.22999029 223.32315864 216.0031036 224.0300293 214.77612305 C225.04987642 213.00594443 226.07029563 211.23609666 227.09082031 209.46630859 C227.70352783 208.40323486 228.31623535 207.34016113 228.94750977 206.24487305 C230.05619144 204.33781449 231.20110363 202.45115609 232.38842773 200.59204102 C233.90756906 198.2919307 233.90756906 198.2919307 233.66503906 195.29052734 C232.94251953 194.87915527 232.22 194.4677832 231.47558594 194.04394531 C218.80023544 186.82347955 206.13220519 179.59295559 193.54003906 172.22802734 C180.94574965 164.86201408 168.31851514 157.55440285 155.66503906 150.29052734 C154.78589844 149.78489258 153.90675781 149.27925781 153.00097656 148.75830078 C150.72515531 147.45150977 148.44601397 146.15079597 146.16503906 144.85302734 C145.1953418 144.2955481 145.1953418 144.2955481 144.20605469 143.72680664 C141.12884484 141.87171329 141.12884484 141.87171329 137.66503906 141.29052734 Z M341.60253906 184.79052734 C340.54615234 185.41056641 339.48976563 186.03060547 338.40136719 186.66943359 C335.81178203 188.19271898 333.23415942 189.73305986 330.66503906 191.29052734 C331.92264976 195.39950022 333.44480099 198.94459721 335.61425781 202.64990234 C336.20730713 203.66971191 336.80035645 204.68952148 337.41137695 205.74023438 C338.05196045 206.82933105 338.69254395 207.91842773 339.35253906 209.04052734 C340.02686621 210.19627614 340.70060224 211.35237 341.3737793 212.50878906 C342.77233702 214.91033282 344.173422 217.31037538 345.57617188 219.70947266 C348.81979805 225.26284582 352.02023621 230.84113038 355.22753906 236.41552734 C360.73860449 245.97689387 366.28889677 255.51483193 371.85717773 265.04296875 C376.17296285 272.43271225 380.44465394 279.84587284 384.66503906 287.29052734 C390.14854508 286.41515559 393.99615597 283.97939282 398.66503906 281.10302734 C399.45910156 280.63316406 400.25316406 280.16330078 401.07128906 279.67919922 C406.74433036 276.21391649 411.4824065 272.83842503 413.66503906 266.29052734 C414.90731422 256.14528019 407.31686682 246.80037204 402.35253906 238.41552734 C398.35442131 231.61786759 394.37554849 224.81177338 390.47363281 217.95849609 C390.12400986 217.34458008 389.7743869 216.73066406 389.41416931 216.09814453 C387.72192935 213.12458574 386.03307694 210.14916965 384.34741211 207.171875 C381.10033004 201.45985777 377.8056631 195.78008803 374.39941406 190.16162109 C373.76487305 189.11288818 373.13033203 188.06415527 372.4765625 186.98364258 C369.79999657 183.00450527 366.97700179 180.44650871 362.66503906 178.29052734 C354.0411809 177.24626601 348.85856978 180.3865516 341.60253906 184.79052734 Z M-17.33496094 184.29052734 C-17.33496094 197.49052734 -17.33496094 210.69052734 -17.33496094 224.29052734 C19.62503906 224.29052734 56.58503906 224.29052734 94.66503906 224.29052734 C94.66503906 211.09052734 94.66503906 197.89052734 94.66503906 184.29052734 C57.70503906 184.29052734 20.74503906 184.29052734 -17.33496094 184.29052734 Z M110.66503906 189.29052734 C110.29239424 195.53376134 110.02133414 201.77046412 109.84106445 208.0222168 C109.76591086 210.14445733 109.66373863 212.26592802 109.53344727 214.38549805 C108.39675834 225.72545098 108.39675834 225.72545098 111.98733521 236.05493164 C115.45553603 239.06972133 119.43980844 240.80925745 123.68496704 242.47598267 C126.59865121 243.67458853 129.21546264 245.28873378 131.90332031 246.92333984 C133.92723617 248.08883395 135.95199286 249.25286898 137.97753906 250.41552734 C140.22371745 251.70704683 142.4698085 252.99871821 144.71582031 254.29052734 C145.85486816 254.94537109 146.99391602 255.60021484 148.16748047 256.27490234 C151.70719796 258.31254949 155.23916436 260.36341331 158.77050781 262.41552734 C159.93736383 263.09254236 161.10427402 263.76946401 162.27124023 264.44628906 C164.46932011 265.72171617 166.66617865 266.99925144 168.86157227 268.27929688 C175.02514617 271.85019769 181.24926223 275.19441822 187.66503906 278.29052734 C189.56750627 274.89505287 191.46975853 271.49945808 193.37182617 268.10375977 C194.33078275 266.39186592 195.28990121 264.68006276 196.24902344 262.96826172 C199.73266652 256.74877328 203.20921961 250.52552345 206.66503906 244.29052734 C205.95299316 243.88439209 205.24094727 243.47825684 204.50732422 243.05981445 C188.29051248 233.80769933 172.09652308 224.51757841 155.93115234 215.17578125 C152.55142818 213.22494929 149.16910346 211.27869228 145.78613281 209.33349609 C124.8527912 197.2903086 124.8527912 197.2903086 115.76196289 191.7265625 C113.37900736 190.0150067 113.37900736 190.0150067 110.66503906 189.29052734 Z M309.63378906 203.17724609 C308.59480469 203.78632813 307.55582031 204.39541016 306.48535156 205.02294922 C305.38964844 205.668125 304.29394531 206.31330078 303.16503906 206.97802734 C296.04213313 211.16467484 288.91381978 215.32475922 281.66503906 219.29052734 C285.95550473 228.25504335 290.66049333 236.84035663 295.74707031 245.37255859 C299.17373187 251.12415702 302.51210283 256.92605847 305.85253906 262.72802734 C306.80108765 264.37448242 306.80108765 264.37448242 307.76879883 266.05419922 C309.07230062 268.31694338 310.37560223 270.57980288 311.67871094 272.84277344 C313.67748138 276.312124 315.67853333 279.78014674 317.68066406 283.24755859 C324.03228742 294.24852638 330.38206769 305.25016231 336.66503906 316.29052734 C346.37338781 311.23144605 355.87130713 305.89413616 365.27832031 300.29443359 C367.04768172 299.24751041 368.82619422 298.20994977 370.66503906 297.29052734 C369.24083306 293.48090671 367.48595023 290.04648766 365.46191406 286.52099609 C364.81867188 285.39757812 364.17542969 284.27416016 363.51269531 283.11669922 C362.81359141 281.90374239 362.11436963 280.6908535 361.41503906 279.47802734 C360.68958555 278.21446631 359.9643278 276.95079287 359.23925781 275.68701172 C354.19230441 266.90003985 349.09243501 258.1442408 343.97241211 249.3996582 C338.66893662 240.32984816 333.45562011 231.20966472 328.25683594 222.07958984 C326.39672848 218.81436525 324.53196735 215.55185623 322.66503906 212.29052734 C322.17399689 211.42899048 322.17399689 211.42899048 321.67303467 210.55004883 C320.70409905 208.85200319 319.72958344 207.15714537 318.75488281 205.46240234 C317.90011353 203.97111816 317.90011353 203.97111816 317.02807617 202.44970703 C316.57827393 201.73717773 316.12847168 201.02464844 315.66503906 200.29052734 C313.55860086 200.29052734 311.36741582 202.15742208 309.63378906 203.17724609 Z M258.86035156 232.46630859 C257.14912109 233.46114258 257.14912109 233.46114258 255.40332031 234.47607422 C254.19882275 235.18493886 252.99439631 235.89392435 251.79003906 236.60302734 C250.59376667 237.30087989 249.39715555 237.99815212 248.20019531 238.69482422 C243.33693275 241.52983605 238.48786926 244.38716802 233.66503906 247.29052734 C234.92925998 251.42542517 236.46981467 254.98992545 238.64941406 258.72021484 C239.24753906 259.75017578 239.84566406 260.78013672 240.46191406 261.84130859 C241.10644531 262.93830078 241.75097656 264.03529297 242.41503906 265.16552734 C243.09262528 266.32799478 243.76970033 267.49076031 244.44628906 268.65380859 C246.18048645 271.63202404 247.92096469 274.60651359 249.66333008 277.57995605 C251.19323256 280.19249852 252.71815412 282.80793925 254.24316406 285.42333984 C255.95435353 288.3577795 257.66590097 291.29200272 259.37939453 294.22509766 C268.89985127 310.52669776 278.32781021 326.8832562 287.66503906 343.29052734 C291.77369436 342.700514 294.66944538 341.34709646 298.22753906 339.23583984 C299.27167969 338.62095703 300.31582031 338.00607422 301.39160156 337.37255859 C302.47183594 336.72673828 303.55207031 336.08091797 304.66503906 335.41552734 C305.74527344 334.77744141 306.82550781 334.13935547 307.93847656 333.48193359 C312.52495745 330.76968131 317.09696874 328.03364943 321.66503906 325.29052734 C320.40742837 321.18155447 318.88527714 317.63645748 316.71582031 313.93115234 C316.12285156 312.91150391 315.52988281 311.89185547 314.91894531 310.84130859 C314.27828125 309.75205078 313.63761719 308.66279297 312.97753906 307.54052734 C312.30247267 306.38331762 311.62800444 305.22575877 310.95410156 304.06787109 C309.55488101 301.66482152 308.15310971 299.26328815 306.74951172 296.86279297 C303.53054533 291.35265909 300.34986059 285.82043982 297.16503906 280.29052734 C295.92562506 278.14199215 294.68604083 275.99355515 293.44628906 273.84521484 C291.17961087 269.91638485 288.91346668 265.98724796 286.64807129 262.05767822 C285.63884802 260.30711494 284.6295007 258.55662324 283.62011719 256.80615234 C282.36336247 254.62660569 281.1068332 252.44692902 279.85058594 250.26708984 C278.70229625 248.27586571 277.55070274 246.28654247 276.39550781 244.29931641 C275.16920941 242.16713504 273.96568905 240.021779 272.77832031 237.86767578 C272.1634375 236.76713867 271.54855469 235.66660156 270.91503906 234.53271484 C270.36332031 233.52837402 269.81160156 232.5240332 269.24316406 231.48925781 C268.46199219 230.40088623 268.46199219 230.40088623 267.66503906 229.29052734 C263.84600525 229.29052734 262.15119359 230.54143324 258.86035156 232.46630859 Z M-17.33496094 240.29052734 C-17.33496094 253.49052734 -17.33496094 266.69052734 -17.33496094 280.29052734 C19.62503906 280.29052734 56.58503906 280.29052734 94.66503906 280.29052734 C94.66503906 267.09052734 94.66503906 253.89052734 94.66503906 240.29052734 C57.70503906 240.29052734 20.74503906 240.29052734 -17.33496094 240.29052734 Z M110.66503906 254.29052734 C110.66503906 269.14052734 110.66503906 283.99052734 110.66503906 299.29052734 C117.53933609 303.26070958 124.41401362 307.23006909 131.29264832 311.19270325 C135.19719273 313.44269108 139.0978489 315.69929056 142.99707031 317.95849609 C144.88627277 319.04854863 146.77558911 320.13840385 148.66503906 321.22802734 C149.98894653 321.99808105 149.98894653 321.99808105 151.33959961 322.78369141 C152.14824463 323.2487207 152.95688965 323.71375 153.79003906 324.19287109 C154.49386719 324.60013428 155.19769531 325.00739746 155.92285156 325.42700195 C157.6396233 326.4385597 157.6396233 326.4385597 159.66503906 326.29052734 C160.10372314 325.52909424 160.54240723 324.76766113 160.99438477 323.9831543 C162.63221456 321.14082771 164.27044258 318.29873142 165.90893555 315.45678711 C166.61612502 314.22999029 167.32315864 313.0031036 168.0300293 311.77612305 C169.04987642 310.00594443 170.07029563 308.23609666 171.09082031 306.46630859 C171.70352783 305.40323486 172.31623535 304.34016113 172.94750977 303.24487305 C174.05619144 301.33781449 175.20110363 299.45115609 176.38842773 297.59204102 C177.90756906 295.2919307 177.90756906 295.2919307 177.66503906 292.29052734 C176.94251953 291.87915527 176.22 291.4677832 175.47558594 291.04394531 C162.5486385 283.68015829 149.63266346 276.30078556 136.79003906 268.79052734 C127.02326577 263.07808957 127.02326577 263.07808957 117.22753906 257.41552734 C116.15632812 256.79935547 115.08511719 256.18318359 113.98144531 255.54833984 C111.95788465 254.21099568 111.95788465 254.21099568 110.66503906 254.29052734 Z M217.66503906 258.29052734 C216.77365234 259.90894531 216.77365234 259.90894531 215.86425781 261.56005859 C215.46883789 262.27516602 215.07341797 262.99027344 214.66601562 263.72705078 C213.78167264 265.3267582 212.89955206 266.92769599 212.01953125 268.52978516 C209.59630112 272.91475886 207.1093753 277.23950125 204.48144531 281.50537109 C203.9694458 282.34801514 203.45744629 283.19065918 202.92993164 284.05883789 C201.93476545 285.68911418 200.92327349 287.30955744 199.89428711 288.91870117 C197.21626317 293.23869703 197.21626317 293.23869703 196.98144531 298.16552734 C199.50731995 302.85392574 202.12385753 307.46688921 204.85253906 312.04052734 C206.1253236 314.19769656 207.39743598 316.35526248 208.66894531 318.51318359 C209.32781738 319.62838379 209.98668945 320.74358398 210.66552734 321.89257812 C213.90733311 327.40166881 217.09965298 332.93904787 220.29003906 338.47802734 C220.9084668 339.55068848 221.52689453 340.62334961 222.1640625 341.72851562 C228.02461716 351.9004778 233.85214912 362.09126385 239.66503906 372.29052734 C249.37338781 367.23144605 258.87130713 361.89413616 268.27832031 356.29443359 C270.04768172 355.24751041 271.82619422 354.20994977 273.66503906 353.29052734 C272.24083306 349.48090671 270.48595023 346.04648766 268.46191406 342.52099609 C267.81867188 341.39757812 267.17542969 340.27416016 266.51269531 339.11669922 C265.81359141 337.90374239 265.11436963 336.6908535 264.41503906 335.47802734 C263.68958555 334.21446631 262.9643278 332.95079287 262.23925781 331.68701172 C257.19312064 322.90146096 252.09465278 314.1467265 246.97460938 305.40405273 C241.63663509 296.27678509 236.39336351 287.09640164 231.16894531 277.90380859 C229.34216478 274.69480149 227.50583454 271.4915115 225.66503906 268.29052734 C225.09398437 267.28731445 224.52292969 266.28410156 223.93457031 265.25048828 C223.4021875 264.33299805 222.86980469 263.41550781 222.32128906 262.47021484 C221.85529297 261.66052246 221.38929688 260.85083008 220.90917969 260.01660156 C220.49861328 259.44699707 220.08804688 258.87739258 219.66503906 258.29052734 C219.00503906 258.29052734 218.34503906 258.29052734 217.66503906 258.29052734 Z M-17.33496094 296.29052734 C-17.39329269 318.69872346 -17.39329269 318.69872346 -17.43261719 341.10693359 C-17.44445402 350.25360372 -17.4583192 359.40023682 -17.48583984 368.546875 C-17.50587916 375.21027369 -17.51870218 381.87364216 -17.52313793 388.53707016 C-17.52572761 392.05982769 -17.53174162 395.5824988 -17.54642105 399.10522842 C-17.56273934 403.05389175 -17.56293393 407.00247331 -17.56201172 410.95117188 C-17.56920227 412.09773254 -17.57639282 413.24429321 -17.58380127 414.42559814 C-17.53592746 433.51462016 -13.78675231 450.28057035 -0.33496094 464.29052734 C13.36793407 476.94511344 28.23500537 480.12969877 46.19921875 479.46533203 C56.35374274 478.74546677 64.58990783 474.1775585 72.66503906 468.29052734 C73.29925781 467.85224609 73.93347656 467.41396484 74.58691406 466.96240234 C86.95982356 457.54082906 92.23613144 442.8502491 94.25945663 428.03536606 C94.87737656 422.32996487 94.92804781 416.68480547 94.89208984 410.95117188 C94.8923819 409.70067047 94.89267395 408.45016907 94.89297485 407.16177368 C94.89183273 403.78244547 94.88190862 400.40337167 94.86782694 397.02408838 C94.85519441 393.47406442 94.85413933 389.92403589 94.85177612 386.37399292 C94.84559771 379.67372631 94.82923699 372.97352616 94.80907714 366.27328861 C94.78238914 357.20354593 94.77171605 348.13378466 94.76007271 339.06401253 C94.74135309 324.8061345 94.70148349 310.54839662 94.66503906 296.29052734 C57.70503906 296.29052734 20.74503906 296.29052734 -17.33496094 296.29052734 Z M185.66503906 314.29052734 C185.03057861 315.39340088 185.03057861 315.39340088 184.38330078 316.51855469 C182.7849096 319.2959939 181.18568813 322.07295299 179.5859375 324.84960938 C178.89909086 326.04213162 178.21255742 327.23483431 177.52636719 328.42773438 C176.52918414 330.16114175 175.53070836 331.89380525 174.53222656 333.62646484 C173.88479492 334.75665039 173.23736328 335.88683594 172.5703125 337.05126953 C171.35669022 339.11461402 170.10310834 341.1553302 168.79882812 343.16259766 C165.59761067 347.94551048 165.59761067 347.94551048 164.53222656 353.46240234 C165.96640078 357.04289247 167.75916683 360.27619771 169.79003906 363.54052734 C170.68747287 365.02263233 171.5831844 366.50578101 172.47753906 367.98974609 C172.97640625 368.81394043 173.47527344 369.63813477 173.98925781 370.48730469 C176.97293697 375.47836006 179.86327618 380.52368779 182.76165771 385.5645752 C183.78592085 387.34586538 184.81145412 389.12641818 185.83740234 390.90673828 C187.44737753 393.7008964 189.05655778 396.49550907 190.66503906 399.29052734 C194.77369436 398.700514 197.66944538 397.34709646 201.22753906 395.23583984 C202.27167969 394.62095703 203.31582031 394.00607422 204.39160156 393.37255859 C205.47183594 392.72673828 206.55207031 392.08091797 207.66503906 391.41552734 C208.74527344 390.77744141 209.82550781 390.13935547 210.93847656 389.48193359 C215.52495745 386.76968131 220.09696874 384.03364943 224.66503906 381.29052734 C223.40742837 377.18155447 221.88527714 373.63645748 219.71582031 369.93115234 C219.1220459 368.91013428 218.52827148 367.88911621 217.91650391 366.8371582 C217.27664551 365.74927002 216.63678711 364.66138184 215.97753906 363.54052734 C214.96847149 361.80856958 213.95941251 360.07660674 212.9508667 358.34434509 C211.90007323 356.54107926 210.84693852 354.73919656 209.79345703 352.9375 C206.35246828 347.04775538 202.94799948 341.13691885 199.54003906 335.22802734 C198.92555908 334.16551758 198.3110791 333.10300781 197.67797852 332.00830078 C194.28395456 326.1327507 190.9352523 320.23594367 187.66503906 314.29052734 C187.00503906 314.29052734 186.34503906 314.29052734 185.66503906 314.29052734 Z M110.66503906 319.29052734 C110.66503906 348.99052734 110.66503906 378.69052734 110.66503906 409.29052734 C113.58790662 405.6369429 115.80606496 402.52648958 118.06347656 398.52099609 C119.01988037 396.8338147 119.01988037 396.8338147 119.99560547 395.11254883 C120.32892883 394.51997284 120.6622522 393.92739685 121.00567627 393.31686401 C122.77413342 390.17299237 124.55637489 387.0369418 126.33691406 383.89990234 C126.69810333 383.26265732 127.0592926 382.62541229 127.431427 381.96885681 C131.54056883 374.72829169 135.74871948 367.54635155 139.97119141 360.37133789 C143.66316835 354.07771124 147.20633514 347.71527547 150.66503906 341.29052734 C149.8692041 340.83726074 149.07336914 340.38399414 148.25341797 339.91699219 C145.25225 338.2069585 142.25167164 336.49589877 139.25146484 334.78417969 C137.96197987 334.04875273 136.67227272 333.31371518 135.38232422 332.57910156 C133.50980504 331.51262405 131.63801296 330.44488494 129.76660156 329.37646484 C129.15689514 329.02872009 128.54718872 328.68097534 127.91900635 328.32269287 C123.40284991 325.73740214 118.95090209 323.05910622 114.53369141 320.30859375 C112.72699251 319.13105468 112.72699251 319.13105468 110.66503906 319.29052734 Z M294.66503906 368.29052734 C294.66503906 405.25052734 294.66503906 442.21052734 294.66503906 480.29052734 C307.86503906 480.29052734 321.06503906 480.29052734 334.66503906 480.29052734 C334.66503906 443.33052734 334.66503906 406.37052734 334.66503906 368.29052734 C321.46503906 368.29052734 308.26503906 368.29052734 294.66503906 368.29052734 Z M350.66503906 368.29052734 C350.66503906 405.25052734 350.66503906 442.21052734 350.66503906 480.29052734 C363.86503906 480.29052734 377.06503906 480.29052734 390.66503906 480.29052734 C390.66503906 443.33052734 390.66503906 406.37052734 390.66503906 368.29052734 C377.46503906 368.29052734 364.26503906 368.29052734 350.66503906 368.29052734 Z M406.66503906 368.29052734 C406.66503906 405.25052734 406.66503906 442.21052734 406.66503906 480.29052734 C425.85843478 481.96316 425.85843478 481.96316 442.60253906 474.54052734 C446.28168298 468.74308844 446.96327006 463.03875348 446.93969727 456.29492188 C446.9448082 455.52807068 446.94991913 454.76121948 446.95518494 453.97113037 C446.96899897 451.45511912 446.96813029 448.93938434 446.96582031 446.42333984 C446.96971193 444.66128438 446.97404756 442.89922985 446.97880554 441.13717651 C446.9862503 437.45046951 446.98598929 433.76385829 446.98071289 430.07714844 C446.97492264 425.37099217 446.99184698 420.66523003 447.01505756 415.95913887 C447.02984601 412.32154071 447.03065964 408.68403633 447.02754784 405.04641342 C447.02805855 403.31220596 447.03324895 401.57799291 447.04335976 399.84381485 C447.65011848 386.02691056 447.65011848 386.02691056 442.39009094 373.72879028 C432.97677438 364.94910447 417.94264912 368.29052734 406.66503906 368.29052734 Z M153.66503906 369.29052734 C153.29330566 369.95882568 152.92157227 370.62712402 152.53857422 371.31567383 C139.86331641 394.08231177 139.86331641 394.08231177 133.5769043 404.66503906 C128.94780262 412.46647288 124.44071864 420.33857729 119.92895508 428.20825195 C117.25892969 432.85298729 114.58365467 437.45696455 111.65332031 441.94287109 C110.9971875 443.04759766 110.34105469 444.15232422 109.66503906 445.29052734 C109.99503906 445.95052734 110.32503906 446.61052734 110.66503906 447.29052734 C111.24543945 446.95021484 111.82583984 446.60990234 112.42382812 446.25927734 C127.98160354 437.14400885 143.6047107 428.15135124 159.27148438 419.22509766 C165.07206398 415.91834997 170.86845169 412.60426678 176.66503906 409.29052734 C175.17245864 405.25690605 173.25430998 401.64871946 171.11035156 397.92333984 C170.76753143 397.32552704 170.4247113 396.72771423 170.07150269 396.11178589 C168.98072416 394.21126533 167.88548231 392.31336226 166.79003906 390.41552734 C166.06187401 389.14877293 165.33400667 387.88184734 164.60644531 386.61474609 C163.25818883 384.26748098 161.90788856 381.92143935 160.55615234 379.57617188 C158.58515435 376.15173462 156.62377866 372.72198716 154.66503906 369.29052734 C154.33503906 369.29052734 154.00503906 369.29052734 153.66503906 369.29052734 Z M270.69628906 373.57958984 C270.10134644 373.92049652 269.50640381 374.2614032 268.89343262 374.61264038 C266.98163783 375.70960303 265.07339268 376.81259138 263.16503906 377.91552734 C261.91004418 378.63595139 260.65483803 379.35600755 259.39941406 380.07568359 C254.98133934 382.58862477 254.98133934 382.58862477 250.62826538 385.21060181 C248.66503906 386.29052734 248.66503906 386.29052734 246.0350647 387.1836853 C242.7621802 388.52033452 240.96404387 389.57785258 238.66503906 392.29052734 C236.77327733 398.60844402 237.50755968 405.61850908 237.68847656 412.12646484 C237.70713761 414.09083453 237.72136761 416.0552509 237.73135376 418.01968384 C237.76946076 423.17976332 237.86761767 428.33700887 237.97839355 433.49597168 C238.09888679 439.69123259 238.14462841 445.88744354 238.20292664 452.08354187 C238.29976799 461.48783874 238.49137998 470.88592347 238.66503906 480.29052734 C251.86503906 480.29052734 265.06503906 480.29052734 278.66503906 480.29052734 C278.66503906 443.99052734 278.66503906 407.69052734 278.66503906 370.29052734 C275.50938331 370.29052734 273.40898 372.01919592 270.69628906 373.57958984 Z M216.59082031 405.07177734 C215.52927734 405.66732422 214.46773437 406.26287109 213.37402344 406.87646484 C212.25318359 407.50810547 211.13234375 408.13974609 209.97753906 408.79052734 C208.90697266 409.39123047 207.83640625 409.99193359 206.73339844 410.61083984 C198.68756673 415.13151038 190.67829986 419.71152118 182.66503906 424.29052734 C182.66503906 442.77052734 182.66503906 461.25052734 182.66503906 480.29052734 C195.86503906 480.29052734 209.06503906 480.29052734 222.66503906 480.29052734 C222.66503906 454.55052734 222.66503906 428.81052734 222.66503906 402.29052734 C220.55490286 402.29052734 218.35230184 404.08180954 216.59082031 405.07177734 Z M160.79394531 437.04443359 C159.75818359 437.64384766 158.72242188 438.24326172 157.65527344 438.86083984 C155.95854492 439.84697266 155.95854492 439.84697266 154.22753906 440.85302734 C153.04733235 441.53684866 151.8669918 442.22043906 150.68652344 442.90380859 C148.22978365 444.32624937 145.77362791 445.74969104 143.31787109 447.17382812 C137.77230699 450.38871421 132.21828655 453.58893837 126.66503906 456.79052734 C124.53218576 458.02092537 122.39937357 459.25139467 120.26660156 460.48193359 C109.39941406 466.75146484 98.53222656 473.02099609 87.66503906 479.29052734 C87.66503906 479.62052734 87.66503906 479.95052734 87.66503906 480.29052734 C113.73503906 480.29052734 139.80503906 480.29052734 166.66503906 480.29052734 C166.66503906 465.11052734 166.66503906 449.93052734 166.66503906 434.29052734 C164.59764365 434.29052734 162.50670248 436.05067088 160.79394531 437.04443359 Z " fill="#000000" transform="translate(41.3349609375,7.70947265625)"/>
<path d="M0 0 C8.34468007 4.97590182 13.53387008 11.86345977 16.109375 21.2578125 C17.10789012 32.35758522 16.45884702 41.9922991 9.359375 51.0703125 C3.70168013 57.1280464 -3.34488592 60.84888618 -11.625 61.59375 C-22.24007794 61.83258597 -31.18444828 60.63001931 -39.2890625 53.1015625 C-47.32833275 43.84659773 -48.61982016 35.03008751 -48.06982422 23.20654297 C-47.37894187 15.69343275 -43.42276801 9.23166585 -37.890625 4.2578125 C-27.15195714 -3.81766573 -12.32399863 -5.91386512 0 0 Z M-29.265625 20.8828125 C-31.46970393 25.46051489 -31.6877889 29.26333661 -30.890625 34.2578125 C-28.56093569 39.09639798 -25.72921048 41.92812319 -20.890625 44.2578125 C-15.89614911 45.0549764 -12.09332739 44.83689143 -7.515625 42.6328125 C-3.93154787 39.39007605 -1.29527259 36.79305354 -0.5078125 31.859375 C-0.25178581 26.17558256 -0.95435568 22.60842595 -4.890625 18.2578125 C-9.24123845 14.32154318 -12.80839506 13.61897331 -18.4921875 13.875 C-23.42586604 14.66246009 -26.02288855 17.29873537 -29.265625 20.8828125 Z " fill="#000000" transform="translate(95.890625,402.7421875)"/>
</svg>
