<?xml version="1.0" encoding="UTF-8"?>
<svg version="1.1" xmlns="http://www.w3.org/2000/svg" width="512" height="512">
<path d="M0 0 C1.08837937 -0.00453111 2.17675874 -0.00906223 3.29811931 -0.01373065 C6.94600206 -0.02639332 10.59373588 -0.02475304 14.24163818 -0.02310181 C16.85680839 -0.0290859 19.47197683 -0.03589117 22.08714294 -0.04345703 C28.45446925 -0.06005367 34.82175852 -0.06556599 41.18910465 -0.06668179 C46.36670367 -0.06763298 51.54429051 -0.07174681 56.72188568 -0.07808304 C71.41090643 -0.09569246 86.09989799 -0.10492248 100.78892937 -0.10342209 C101.97619162 -0.10330222 101.97619162 -0.10330222 103.18743896 -0.10317993 C104.37615601 -0.10305729 104.37615601 -0.10305729 105.58888754 -0.10293217 C118.42755569 -0.10211954 131.26610645 -0.1212521 144.10474065 -0.14945666 C157.29675201 -0.17820814 170.48870617 -0.19199569 183.68074965 -0.19026911 C191.08328062 -0.18960595 198.48568854 -0.19506566 205.88819122 -0.21662521 C212.85184761 -0.23677707 219.81524041 -0.23614016 226.77890968 -0.22159195 C229.33223411 -0.2195012 231.88557474 -0.22422048 234.43887138 -0.23631287 C237.92984834 -0.2517729 241.41993066 -0.24245088 244.91088867 -0.22705078 C246.41938177 -0.24248147 246.41938177 -0.24248147 247.95834947 -0.25822389 C257.36887225 -0.1667558 265.44155612 2.56509442 272.38519287 9.07211304 C280.64456781 19.01166061 281.96318934 29.60555147 280.83650208 41.96060181 C280.66481115 43.64832267 280.48816616 45.33554481 280.30731201 47.02230835 C280.2113826 47.9519339 280.11545319 48.88155945 280.01661682 49.83935547 C279.70128664 52.88357709 279.37932698 55.92705525 279.05706787 58.97055054 C278.83492376 61.09801779 278.61312229 63.22552084 278.39164734 65.35305786 C277.9279351 69.79812798 277.46111692 74.24285692 276.99188232 78.68734741 C276.39077451 84.3819135 275.7958599 90.07710505 275.20305729 95.77254105 C274.74599137 100.15990006 274.2864645 104.54699841 273.82610893 108.93401337 C273.60585815 111.03429936 273.38618467 113.13464597 273.16710091 115.23505402 C272.86074861 118.16699934 272.55127981 121.09859889 272.24090576 124.03012085 C272.15099365 124.89567596 272.06108154 125.76123108 271.96844482 126.65301514 C271.55021185 130.57351523 271.08195122 134.41557117 270.20941162 138.26742554 C270.95585937 138.25854309 271.70230713 138.24966064 272.47137451 138.24050903 C279.53257694 138.16010336 286.59361873 138.09933001 293.65515137 138.06017685 C297.28492893 138.03937038 300.91432577 138.011182 304.54388428 137.96566772 C308.05172425 137.92195894 311.55919982 137.89823632 315.06729126 137.88791656 C317.04585806 137.877013 319.02427983 137.84582719 321.00262451 137.8142395 C333.68980305 137.81109932 338.90937574 141.44568396 347.78894043 150.29116821 C348.8619 151.37128844 349.93433618 152.45192881 351.00628662 153.53305054 C352.12812066 154.65218501 353.25054747 155.77072555 354.37353516 156.88870239 C356.71649467 159.22578878 359.05212892 161.56989354 361.38275146 163.91928101 C364.35706991 166.91638727 367.34898999 169.89517254 370.34666061 172.8689003 C372.66518741 175.17291002 374.97402561 177.48644037 377.28012848 179.80287933 C378.37911472 180.90451654 379.48103201 182.0032384 380.58602142 183.09885406 C382.13415683 184.63672611 383.66872637 186.18703059 385.20062256 187.74105835 C386.07362 188.61723816 386.94661743 189.49341797 387.84606934 190.39614868 C393.39855875 197.14199098 394.80369402 202.76812963 394.72698975 211.41195679 C394.73750366 212.88672989 394.73750366 212.88672989 394.74822998 214.39129639 C394.7657456 217.62113205 394.7542097 220.85008193 394.74066162 224.07992554 C394.74335837 226.33619351 394.74724232 228.59246035 394.7522583 230.84872437 C394.75814466 235.56945905 394.7496179 240.28989028 394.730896 245.0105896 C394.70810736 251.04978086 394.72123502 257.08826096 394.74518585 263.12742615 C394.75966693 267.78412191 394.75502717 272.44065016 394.74467468 277.09735107 C394.7420138 279.32360926 394.74525459 281.54988285 394.7545929 283.77612305 C394.76479624 286.89212099 394.74920364 290.00698072 394.72698975 293.12289429 C394.73508667 294.03533905 394.74318359 294.94778381 394.75152588 295.88787842 C394.65261992 303.40870504 392.75432344 308.72251371 387.39691162 314.07992554 C379.49483497 319.50291932 373.69247568 319.6524522 364.20941162 319.26742554 C364.0624585 319.81269897 363.91550537 320.35797241 363.76409912 320.91976929 C360.51089689 331.85725954 353.75459031 341.38313725 343.86566162 347.25180054 C331.46210322 353.85753346 319.48508801 356.58137099 305.45941162 353.07992554 C291.06976645 348.52250126 281.40183446 340.59631993 274.20941162 327.26742554 C272.86216284 324.27697496 272.20941162 322.56853331 272.20941162 319.26742554 C180.63441162 319.76242554 180.63441162 319.76242554 87.20941162 320.26742554 C84.89941162 324.88742554 82.58941162 329.50742554 80.20941162 334.26742554 C71.63385957 345.40284387 61.27919283 352.27794055 47.20941162 354.26742554 C33.6217766 355.43678564 21.53754456 352.64204581 10.67816162 344.32992554 C2.73220593 337.62851712 -2.59844684 330.16016546 -5.79058838 320.26742554 C-6.89458984 320.25807983 -7.99859131 320.24873413 -9.13604736 320.23910522 C-13.26827987 320.19895416 -17.39978737 320.13312816 -21.53155518 320.05990601 C-23.31303529 320.03184104 -25.09463657 320.01055514 -26.87628174 319.99642944 C-47.14001444 319.82619366 -47.14001444 319.82619366 -55.09527588 313.40805054 C-63.03882533 303.84417508 -63.43843506 295.80553288 -62.3417511 283.70144653 C-62.13467451 281.66007892 -61.92209372 279.61926443 -61.70489502 277.57894897 C-61.58945847 276.45571228 -61.47402191 275.33247559 -61.35508728 274.17520142 C-60.97525818 270.49186902 -60.58813109 266.80934513 -60.20074463 263.12680054 C-59.9337036 260.55475886 -59.66706242 257.98267564 -59.40080261 255.41055298 C-58.84318598 250.03406154 -58.28234685 244.65792229 -57.71856689 239.28207397 C-57.06798176 233.07831205 -56.4222353 226.87406223 -55.77934748 220.66949821 C-55.15869904 214.67960396 -54.53580851 208.68994624 -53.9116497 202.70041656 C-53.64694291 200.15994405 -53.38261359 197.61943218 -53.11866951 195.07888031 C-52.74961054 191.53182219 -52.37803348 187.98503718 -52.00567627 184.43832397 C-51.89706268 183.39092041 -51.7884491 182.34351685 -51.67654419 181.26437378 C-51.18100273 176.56851811 -50.64673578 171.91466916 -49.79058838 167.26742554 C-50.57097473 167.27630798 -51.35136108 167.28519043 -52.15539551 167.29434204 C-59.51218658 167.37451229 -66.86876567 167.43540184 -74.22587967 167.47467422 C-78.00821833 167.49554349 -81.79019585 167.52384802 -85.57232666 167.56918335 C-89.2227915 167.61266627 -92.87290913 167.63656762 -96.52361298 167.64693451 C-97.91590592 167.65432163 -99.30818 167.66874729 -100.70032501 167.69034576 C-102.65112249 167.71940595 -104.60226984 167.72105966 -106.55328369 167.7215271 C-107.66358948 167.73040955 -108.77389526 167.73929199 -109.91784668 167.7484436 C-113.44984012 167.157039 -114.61031464 166.04902566 -116.79058838 163.26742554 C-117.32183838 161.26742554 -117.32183838 161.26742554 -117.29058838 159.26742554 C-117.30605713 158.27742554 -117.30605713 158.27742554 -117.32183838 157.26742554 C-116.53781988 154.3158265 -115.15710044 153.16952813 -112.79058838 151.26742554 C-109.84191895 150.78640747 -109.84191895 150.78640747 -106.36968994 150.81332397 C-104.41811981 150.81377716 -104.41811981 150.81377716 -102.42712402 150.8142395 C-101.01181423 150.83466468 -99.5965107 150.85552864 -98.18121338 150.87680054 C-96.72962219 150.88426409 -95.2780209 150.88995648 -93.82641602 150.89395142 C-90.0121258 150.9091991 -86.19844816 150.94847245 -82.38439941 150.99276733 C-78.48993211 151.03373931 -74.59536549 151.05196648 -70.70074463 151.07211304 C-63.06371473 151.11496859 -55.42731554 151.18531019 -47.79058838 151.26742554 C-47.46058838 146.31742554 -47.13058838 141.36742554 -46.79058838 136.26742554 C-48.69324463 136.31383179 -50.59590088 136.36023804 -52.55621338 136.40805054 C-55.05098937 136.44556597 -57.54578231 136.48196636 -60.04058838 136.51742554 C-61.29484619 136.55094116 -62.549104 136.58445679 -63.84136963 136.61898804 C-65.04664307 136.63187866 -66.2519165 136.64476929 -67.49371338 136.65805054 C-68.60391846 136.6789978 -69.71412354 136.69994507 -70.85797119 136.7215271 C-74.4479997 136.16562858 -75.58575352 135.09208294 -77.79058838 132.26742554 C-78.32183838 130.26742554 -78.32183838 130.26742554 -78.29058838 128.26742554 C-78.30090088 127.60742554 -78.31121338 126.94742554 -78.32183838 126.26742554 C-77.53445448 123.30315673 -76.17892205 122.16734741 -73.79058838 120.26742554 C-70.67437744 119.81332397 -70.67437744 119.81332397 -67.05621338 119.87680054 C-65.11295166 119.89613647 -65.11295166 119.89613647 -63.13043213 119.91586304 C-61.76714014 119.94928187 -60.40385889 119.98314163 -59.04058838 120.01742554 C-57.66170774 120.03749846 -56.28279926 120.05574786 -54.90386963 120.07211304 C-51.53207094 120.11927106 -48.16168151 120.18508016 -44.79058838 120.26742554 C-44.74571289 119.70160767 -44.7008374 119.13578979 -44.65460205 118.55282593 C-43.40971627 103.07314403 -41.73568285 87.6742109 -39.79058838 72.26742554 C-41.57674561 72.29884644 -41.57674561 72.29884644 -43.39898682 72.3309021 C-47.81943727 72.40333516 -52.23983534 72.44923726 -56.66070557 72.4871521 C-58.57355573 72.50726005 -60.48634449 72.53455061 -62.39898682 72.56918335 C-65.14946649 72.61773803 -67.89913315 72.64040211 -70.64996338 72.65805054 C-71.50426941 72.67869568 -72.35857544 72.69934082 -73.23876953 72.72061157 C-79.18202277 72.72285459 -79.18202277 72.72285459 -82.32867432 70.36801147 C-83.90756426 68.09934596 -84.33332617 67.0026441 -84.29058838 64.26742554 C-84.30090088 63.60742554 -84.31121338 62.94742554 -84.32183838 62.26742554 C-83.5032242 59.18558392 -82.36762951 58.17543658 -79.79058838 56.26742554 C-76.59617014 55.70484819 -73.44720706 55.80243778 -70.21246338 55.87680054 C-69.28588928 55.88246033 -68.35931519 55.88812012 -67.40466309 55.89395142 C-64.44944276 55.91631632 -61.49544132 55.96651292 -58.54058838 56.01742554 C-56.53539757 56.03749039 -54.53018774 56.05574119 -52.52496338 56.07211304 C-47.61303643 56.11618154 -42.70201896 56.18520999 -37.79058838 56.26742554 C-37.73290283 55.15697876 -37.67521729 54.04653198 -37.61578369 52.9024353 C-37.18753758 44.96385366 -36.75274369 37.07000224 -35.54058838 29.20492554 C-35.44390869 28.44244507 -35.347229 27.6799646 -35.24761963 26.89437866 C-33.6450452 16.3515997 -27.06244927 9.54323589 -18.73199463 3.38070679 C-12.66437479 -0.09871304 -6.79105376 -0.02073092 0 0 Z M-16.04058838 23.64242554 C-21.36519693 32.45785629 -20.1557896 46.2027275 -20.79058838 56.26742554 C-19.86097542 56.2762249 -19.86097542 56.2762249 -18.9125824 56.28520203 C-12.47244416 56.34904904 -6.0328097 56.43344586 0.40692139 56.52987671 C2.8114763 56.5631673 5.21611013 56.59118621 7.62078857 56.61386108 C11.07384941 56.64733064 14.52618423 56.69964351 17.97894287 56.75570679 C19.59625053 56.76529167 19.59625053 56.76529167 21.24623108 56.77507019 C22.24704208 56.79486435 23.24785309 56.81465851 24.2789917 56.83505249 C25.60136589 56.85170708 25.60136589 56.85170708 26.95045471 56.86869812 C29.66211489 57.34733198 30.55732631 58.10302203 32.20941162 60.26742554 C32.60784912 62.20492554 32.60784912 62.20492554 32.58441162 64.26742554 C32.59601318 65.28836304 32.59601318 65.28836304 32.60784912 66.32992554 C32.08122786 68.89075048 31.25981486 69.66120457 29.20941162 71.26742554 C26.87452698 71.66615295 26.87452698 71.66615295 24.09539795 71.69979858 C23.05454544 71.71959274 22.01369293 71.7393869 20.94129944 71.75978088 C19.25837044 71.76936577 19.25837044 71.76936577 17.54144287 71.77914429 C16.39149338 71.79709549 15.24154388 71.81504669 14.05674744 71.83354187 C10.3785063 71.88778815 6.70039599 71.92158725 3.02191162 71.95492554 C0.5303569 71.98808588 -1.96118052 72.02257432 -4.45269775 72.05844116 C-10.56521066 72.14352288 -16.6777402 72.21181209 -22.79058838 72.26742554 C-23.50497477 78.62092774 -24.21679475 84.97471367 -24.92681885 91.32870483 C-25.16873835 93.4908807 -25.41124847 95.65299056 -25.65435791 97.81503296 C-26.00340039 100.9200864 -26.35032833 104.02536985 -26.69683838 107.13070679 C-26.80620728 108.099543 -26.91557617 109.06837921 -27.02825928 110.0665741 C-27.12836304 110.96728134 -27.2284668 111.86798859 -27.331604 112.79598999 C-27.42042847 113.58874832 -27.50925293 114.38150665 -27.60076904 115.19828796 C-27.83626576 117.41903038 -27.83626576 117.41903038 -27.79058838 120.26742554 C-27.00798141 120.27329178 -26.22537445 120.27915802 -25.41905212 120.28520203 C-18.04698215 120.34308395 -10.67525191 120.41513406 -3.30348492 120.50314045 C0.48651826 120.54788577 4.2764129 120.58713234 8.06658936 120.61386108 C11.72372215 120.63985311 15.38043824 120.68022541 19.03731346 120.7306118 C20.43311572 120.74730849 21.82899011 120.75880533 23.22487831 120.76503944 C25.17857874 120.77464916 27.13214889 120.80439025 29.08563232 120.83505249 C30.19815872 120.84615555 31.31068512 120.85725861 32.45692444 120.86869812 C35.20941162 121.26742554 35.20941162 121.26742554 37.06724548 122.6733551 C38.49219529 124.66209412 38.61203682 125.83640821 38.58441162 128.26742554 C38.59601318 129.28836304 38.59601318 129.28836304 38.60784912 130.32992554 C38.07286331 132.93142515 37.33352267 133.66985586 35.20941162 135.26742554 C32.3809967 135.66615295 32.3809967 135.66615295 28.90203857 135.69979858 C27.60091629 135.71959274 26.29979401 135.7393869 24.95924377 135.75978088 C23.53872827 135.76655071 22.1182112 135.77299757 20.69769287 135.77914429 C19.24464901 135.79598883 17.79161974 135.81413877 16.33860779 135.83354187 C12.51641398 135.88107295 8.69427932 135.91086189 4.87188721 135.9369812 C0.97060461 135.96677127 -2.93047409 136.01330685 -6.831604 136.05844116 C-14.48451523 136.1445097 -22.13739643 136.21029096 -29.79058838 136.26742554 C-30.12058838 141.21742554 -30.45058838 146.16742554 -30.79058838 151.26742554 C-29.38164307 151.30480835 -27.97269775 151.34219116 -26.52105713 151.38070679 C-24.67337399 151.4463605 -22.82571893 151.51280805 -20.97808838 151.57992554 C-19.58493408 151.61376343 -19.58493408 151.61376343 -18.16363525 151.64828491 C-17.27095947 151.68373413 -16.37828369 151.71918335 -15.45855713 151.75570679 C-14.22528687 151.79498291 -14.22528687 151.79498291 -12.96710205 151.83505249 C-10.33208479 152.35850909 -9.41994227 153.16774934 -7.79058838 155.26742554 C-7.39215088 157.20492554 -7.39215088 157.20492554 -7.41558838 159.26742554 C-7.40398682 160.28836304 -7.40398682 160.28836304 -7.39215088 161.32992554 C-7.91865714 163.89019125 -8.74367091 164.65780027 -10.79058838 166.26742554 C-13.1506958 166.69979858 -13.1506958 166.69979858 -15.89605713 166.77914429 C-16.87896729 166.81459351 -17.86187744 166.85004272 -18.87457275 166.88656616 C-19.89873291 166.90912476 -20.92289307 166.93168335 -21.97808838 166.95492554 C-23.0138501 166.98908569 -24.04961182 167.02324585 -25.11676025 167.05844116 C-27.67459498 167.14095196 -30.23208561 167.21009125 -32.79058838 167.26742554 C-35.1299363 188.93344609 -37.46402503 210.60002831 -39.79058838 232.26742554 C-39.9151239 233.42691711 -40.03965942 234.58640869 -40.16796875 235.78103638 C-40.77338752 241.42077704 -41.37672947 247.06072851 -41.97528076 252.70120239 C-42.14292793 254.27863187 -42.31129583 255.85598493 -42.48040771 257.43325806 C-42.70951684 259.5717827 -42.93600569 261.71056758 -43.16168213 263.84945679 C-43.28470703 265.00679321 -43.40773193 266.16412964 -43.53448486 267.35653687 C-43.84901682 270.44450467 -43.84901682 270.44450467 -43.79058838 274.26742554 C-36.97755382 274.47122217 -30.16531204 274.61075854 -23.34991455 274.70687866 C-21.03451161 274.74696942 -18.71930943 274.80145897 -16.40460205 274.87094116 C-13.06531153 274.96862744 -9.72870929 275.01349677 -6.38824463 275.04867554 C-5.36288101 275.08996582 -4.3375174 275.1312561 -3.28108215 275.17379761 C2.65161601 275.17745433 5.76436675 274.33965015 10.246521 270.33139038 C10.94233276 269.61687714 11.63814453 268.90236389 12.3550415 268.16619873 C19.32968821 261.02454341 30.86749433 259.1947919 40.39691162 258.89242554 C51.79875533 259.07376699 62.04515402 262.41036659 71.20941162 269.26742554 C71.79087448 270.11430435 72.37233734 270.96118317 72.97142029 271.83372498 C76.62749965 275.47642566 81.26186872 274.87339201 86.13491821 274.91174316 C87.50195829 274.89723833 88.86899319 274.88223759 90.23602295 274.86679077 C91.68189413 274.8686555 93.12776391 274.87269359 94.57362366 274.8787384 C98.49550329 274.88871059 102.41665975 274.86754447 106.33843446 274.84025836 C110.44797493 274.81640355 114.55750163 274.81937307 118.667099 274.81895447 C125.57138276 274.81432642 132.47539077 274.7906903 139.37957764 274.75448608 C147.34970176 274.71280215 155.31957738 274.69517403 163.28980428 274.69186634 C171.78715818 274.68825849 180.28442326 274.66936671 188.78173995 274.64474607 C191.2236273 274.63853281 193.66550788 274.63488672 196.10740089 274.63171196 C199.95455134 274.62578416 203.80152651 274.60939603 207.64860344 274.5851078 C209.0562212 274.57770521 210.46386097 274.5735983 211.87149811 274.57312775 C223.95243004 274.75610342 223.95243004 274.75610342 235.02191162 270.51742554 C240.59222704 264.78795825 240.96428864 258.25695773 241.71722412 250.66757202 C241.84369827 249.48839014 241.97017242 248.30920826 242.10047913 247.09429359 C242.44905968 243.82315515 242.78717667 240.55123798 243.12098312 237.278579 C243.4844961 233.74006411 243.86145621 230.2029804 244.23699951 226.66572571 C244.89123985 220.48846093 245.53753715 214.31040522 246.17962646 208.13186646 C247.22883375 198.04363033 248.30572608 187.95841841 249.38519287 177.87338257 C251.10154743 161.82605374 252.79977001 145.77688288 254.48495483 129.7262516 C255.55161054 119.56864508 256.62479207 109.41177081 257.70599461 99.25570208 C258.48223474 91.95906397 259.25115025 84.66167619 260.01463223 77.36369222 C260.46521992 73.05852032 260.91893085 68.75373564 261.38076782 64.44975471 C261.80946896 60.45336679 262.22907281 56.45612713 262.64174843 52.45805359 C262.7936146 51.00206039 262.94872892 49.5464015 263.10744286 48.09113884 C264.88615938 35.72526773 264.88615938 35.72526773 261.93988037 23.92758179 C261.43070068 23.40035522 260.921521 22.87312866 260.39691162 22.32992554 C259.89546631 21.7846521 259.394021 21.23937866 258.87738037 20.67758179 C254.73579438 17.17614726 251.33825067 17.02208935 245.96234131 17.04037476 C245.23999298 17.0400827 244.51764465 17.03979065 243.77340698 17.03948975 C241.3925768 17.04087992 239.01206195 17.0564262 236.63128662 17.07211304 C234.97790701 17.07584428 233.32452519 17.07869073 231.67114258 17.08068848 C227.32442088 17.08831616 222.97783333 17.10795721 218.63116455 17.13009644 C214.1937237 17.1505735 209.75626112 17.15969417 205.31878662 17.16976929 C196.61560013 17.19120393 187.91252258 17.22532941 179.20941162 17.26742554 C177.75451346 30.49508116 176.30204921 43.72064159 175.14691162 56.97836304 C175.02811646 58.32030731 175.02811646 58.32030731 174.90692139 59.68936157 C174.59105903 63.26188222 174.27645369 66.83435467 173.97991943 70.40853882 C173.75499394 73.09957782 173.51479194 75.7888932 173.27191162 78.47836304 C173.20931152 79.27825653 173.14671143 80.07815002 173.08221436 80.90228271 C172.52260068 86.8836759 171.26241838 91.41471212 166.64691162 95.57992554 C161.90511305 98.86270916 157.88357157 98.97056351 152.20941162 98.26742554 C143.82807421 95.18562793 136.47375743 88.53695952 129.46331787 83.16195679 C128.59577881 82.51613647 127.72823975 81.87031616 126.83441162 81.20492554 C126.06355225 80.61582397 125.29269287 80.02672241 124.49847412 79.41976929 C121.51318589 77.91693648 120.39360862 78.35420014 117.20941162 79.26742554 C114.47978043 80.6883446 114.47978043 80.6883446 111.71722412 82.50570679 C110.68210693 83.16119507 109.64698975 83.81668335 108.58050537 84.49203491 C107.50929443 85.18103882 106.4380835 85.87004272 105.33441162 86.57992554 C101.29808314 89.15094447 97.25827288 91.71618264 93.20941162 94.26742554 C92.5034082 94.71529419 91.79740479 95.16316284 91.07000732 95.62460327 C85.96097118 98.73183308 82.03316931 99.05545876 76.20941162 98.26742554 C72.65432516 97.03930476 70.86136025 96.11030198 68.56878662 93.14633179 C66.84833184 89.50272496 66.80180183 86.33468272 66.89691162 82.39242554 C66.91165527 81.22308472 66.91165527 81.22308472 66.92669678 80.03012085 C67.1426729 69.73996896 68.20479109 59.50410418 69.20941162 49.26742554 C69.49823972 46.28173773 69.78449455 43.29586469 70.06536865 40.30941772 C70.23851594 38.47235953 70.41621152 36.63572138 70.59954834 34.7996521 C71.15691689 28.93887135 71.30838653 23.15329037 71.20941162 17.26742554 C61.01279356 17.17466495 50.81627621 17.10362975 40.61932182 17.06017685 C35.88422597 17.03931949 31.14941922 17.01103574 26.41448975 16.96566772 C21.84331554 16.92214381 17.27241907 16.8982745 12.70105362 16.88791656 C10.95874791 16.88053693 9.21645706 16.86612607 7.47426987 16.84450531 C5.03002052 16.81538364 2.58691256 16.81147309 0.14251709 16.81332397 C-0.93318794 16.79175232 -0.93318794 16.79175232 -2.03062439 16.76974487 C-8.28266209 16.82082889 -11.83684646 19.20514241 -16.04058838 23.64242554 Z M88.20941162 17.26742554 C86.78970725 31.74921189 86.78970725 31.74921189 86.20941162 46.26742554 C94.44194747 41.62659573 102.56852971 36.8722229 110.56488037 31.83383179 C116.68257236 28.21020625 123.29949966 28.52707783 130.20941162 29.26742554 C134.03326666 30.6456555 136.96590209 32.84477683 140.20941162 35.26742554 C142.42218567 36.84669741 144.64270761 38.41465309 146.86444092 39.98129272 C148.4152086 41.07982717 149.95979749 42.18714179 151.4977417 43.30355835 C152.56158081 44.07071167 152.56158081 44.07071167 153.64691162 44.85336304 C154.28499756 45.31790894 154.9230835 45.78245483 155.58050537 46.26107788 C157.17387438 47.44262241 157.17387438 47.44262241 159.20941162 47.26742554 C162.38746134 37.73327639 161.46701037 27.28984243 162.20941162 17.26742554 C137.78941162 17.26742554 113.36941162 17.26742554 88.20941162 17.26742554 Z M110.83441162 50.64242554 C109.06004603 51.75630276 107.28530075 52.86957538 105.51019287 53.98226929 C104.6254126 54.54027222 103.74063232 55.09827515 102.82904053 55.67318726 C100.38531732 57.16037389 97.9144439 58.51405418 95.37738037 59.83383179 C87.56682924 63.72074514 87.56682924 63.72074514 83.00238037 70.77914429 C82.7359048 74.06567633 82.75962714 77.00648802 83.20941162 80.26742554 C90.1346416 76.97411026 96.60141993 73.2654032 103.02191162 69.07992554 C104.65087446 68.0200103 106.28231222 66.96388704 107.91644287 65.91195679 C108.9756897 65.22130127 108.9756897 65.22130127 110.05633545 64.51669312 C114.84972216 61.73545263 118.64214977 60.70126331 124.20941162 61.26742554 C131.49671565 64.4244394 137.74925469 68.94114415 144.20941162 73.51742554 C145.27031006 74.26250366 146.3312085 75.00758179 147.42425537 75.77523804 C150.02272773 77.60119158 152.61762444 79.43200145 155.20941162 81.26742554 C157.76677446 77.43138127 158.24313405 74.80884877 158.14691162 70.23226929 C156.29025264 64.36058526 150.35389393 61.63911341 145.33685303 58.58822632 C141.59625014 56.26591032 138.01079409 53.71793356 134.39691162 51.20492554 C133.03664799 50.27593443 131.6760038 49.34750018 130.31488037 48.41976929 C127.20941162 46.26742554 127.20941162 46.26742554 126.20941162 45.26742554 C119.95592508 44.26134411 115.8896667 47.43108553 110.83441162 50.64242554 Z M268.20941162 154.26742554 C268.13281815 154.97960236 268.05622467 155.69177917 267.97731018 156.42553711 C267.74151135 158.61788709 267.50568368 160.81023396 267.26983643 163.00257874 C266.98784372 165.62416113 266.7059377 168.24575272 266.4241333 170.86735535 C265.63776978 178.18081536 264.84886543 185.49399064 264.05584717 192.80673218 C263.73179608 195.79751035 263.40801016 198.78831712 263.08441162 201.77914429 C263.00370234 202.5248852 262.92299305 203.27062611 262.83983803 204.03896523 C261.89899992 212.74184101 260.97858108 221.44610811 260.10487366 230.15603638 C259.68199536 234.37059488 259.24944197 238.58413466 258.81619263 242.79763794 C258.62180499 244.71804991 258.43259761 246.63899412 258.24887085 248.56045532 C255.81707425 273.96245832 255.81707425 273.96245832 245.20941162 283.26742554 C239.34623957 287.1892145 234.37288145 289.38324456 227.26795959 289.42564392 C225.40645264 289.44032715 225.40645264 289.44032715 223.50733948 289.45530701 C222.12979164 289.46121117 220.75224341 289.46702162 219.37469482 289.4727478 C217.92599203 289.48232665 216.47729203 289.49233673 215.02859497 289.50274658 C211.09296559 289.52980105 207.15732421 289.55080768 203.22165322 289.57074857 C199.10965551 289.59260477 194.9976948 289.61999525 190.88572693 289.64680481 C183.09787587 289.69673664 175.31000427 289.74167366 167.52211303 289.78482717 C158.65640781 289.83419535 149.79073972 289.88911504 140.92507041 289.94450676 C122.68655174 290.05833435 104.4479975 290.16497479 86.20941162 290.26742554 C86.86941162 294.22742554 87.52941162 298.18742554 88.20941162 302.26742554 C148.26941162 302.26742554 208.32941162 302.26742554 270.20941162 302.26742554 C272.18941162 294.84242554 272.18941162 294.84242554 274.20941162 287.26742554 C276.12786338 283.59734391 277.82520973 280.55245937 280.20941162 277.26742554 C280.86876709 276.31803101 280.86876709 276.31803101 281.54144287 275.34945679 C288.44415354 266.33813709 299.27453686 261.34085551 310.20941162 259.26742554 C319.30166064 258.43914612 327.63795671 259.07740186 336.20941162 262.26742554 C336.90292725 262.52265991 337.59644287 262.77789429 338.31097412 263.04086304 C348.65820089 267.53428024 357.01092106 276.76897746 361.38909912 287.03305054 C363.26082845 292.03343693 364.83405688 297.10984527 366.20941162 302.26742554 C371.47268618 302.77140961 371.47268618 302.77140961 376.14691162 300.95492554 C378.3255754 297.49469484 378.33141244 294.48581166 378.32293701 290.51083374 C378.32282372 288.73933708 378.32282372 288.73933708 378.32270813 286.93205261 C378.31754684 285.65698349 378.31238556 284.38191437 378.30706787 283.06820679 C378.30565292 281.76288498 378.30423798 280.45756317 378.30278015 279.11268616 C378.29896542 275.64552897 378.28914406 272.1784138 378.27807617 268.71127319 C378.2678396 265.17205371 378.26327772 261.63282743 378.25823975 258.09359741 C378.24752085 251.15152288 378.23045696 244.20947623 378.20941162 237.26742554 C376.90848068 237.25862617 376.90848068 237.25862617 375.58126831 237.24964905 C367.37259729 237.1915332 359.16419291 237.11934948 350.95578194 237.03171062 C346.73663399 236.98715086 342.51757941 236.94786386 338.29827881 236.92098999 C334.21969207 236.8948123 330.14146743 236.85431004 326.06310654 236.80423927 C324.51399139 236.78766767 322.96481376 236.77609337 321.41562271 236.76981163 C310.37802838 236.72056483 299.99043036 236.39534435 291.03363037 229.14633179 C282.73738971 220.60138155 282.0025353 212.26353947 281.96917725 200.90512085 C281.95947737 198.90597581 281.92826727 196.90697319 281.89691162 194.90805054 C281.88917725 193.0015271 281.88917725 193.0015271 281.88128662 191.05648804 C281.87194092 189.89842651 281.86259521 188.74036499 281.85296631 187.54721069 C282.38974784 182.60808524 284.05879478 179.35903639 287.64691162 175.95492554 C291.45475551 173.44732102 294.66005327 173.14331602 299.16156006 173.06210327 C300.14227478 173.04215805 301.1229895 173.02221283 302.13342285 173.00166321 C303.71017792 172.97659447 303.71017792 172.97659447 305.31878662 172.95101929 C306.40073303 172.93023819 307.48267944 172.90945709 308.59741211 172.88804626 C312.05134775 172.82269623 315.50535899 172.76373324 318.95941162 172.70492554 C321.30186734 172.6617265 323.64431542 172.61811176 325.98675537 172.57406616 C331.72756103 172.46702971 337.46844177 172.36523628 343.20941162 172.26742554 C342.26586951 171.15909522 341.3212383 170.05169203 340.37615967 168.94467163 C339.58727608 168.01949234 339.58727608 168.01949234 338.78245544 167.07562256 C336.61877064 164.58849006 334.34357356 162.23208486 332.02191162 159.89242554 C331.18273193 159.03906616 330.34355225 158.18570679 329.47894287 157.30648804 C325.99824755 154.17925403 323.23046264 154.14378273 318.72821045 154.15390015 C317.04680717 154.15401344 317.04680717 154.15401344 315.33143616 154.15412903 C314.12198837 154.15929031 312.91254059 154.1644516 311.66644287 154.16976929 C310.4277092 154.17118423 309.18897552 154.17259918 307.91270447 154.17405701 C304.62309625 154.17870951 301.33353702 154.18769164 298.04394531 154.19876099 C294.68569539 154.20899924 291.32743829 154.2135598 287.96917725 154.21859741 C281.3825695 154.22963408 274.79599457 154.24637787 268.20941162 154.26742554 Z M298.20941162 189.26742554 C298.12173607 192.64225967 298.06879534 196.01679769 298.02191162 199.39242554 C297.9967749 200.34375366 297.97163818 201.29508179 297.94573975 202.27523804 C297.88990661 207.63521902 297.87390465 211.81557242 301.20941162 216.26742554 C307.72796484 221.96827306 316.02747656 220.77326883 324.20550537 220.65805054 C325.7649106 220.65058135 327.32432528 220.64489162 328.88374329 220.64089966 C332.96923164 220.62569643 337.05414258 220.5864616 341.1394043 220.54208374 C345.31565543 220.50101553 349.49200073 220.4828641 353.668396 220.46273804 C361.84899821 220.41996116 370.02913289 220.35177556 378.20941162 220.26742554 C378.2910191 218.37231855 378.34887621 216.4761805 378.39691162 214.57992554 C378.43171631 213.52418335 378.466521 212.46844116 378.50238037 211.38070679 C378.17029836 207.85178197 377.22192581 206.14415543 375.20941162 203.26742554 C374.65898697 202.35717117 374.65898697 202.35717117 374.09744263 201.42852783 C370.01657473 195.22176426 365.33345298 190.1841644 357.87554932 188.52633667 C348.94204472 187.57754983 340.00136244 187.9187069 331.04370117 188.30612183 C327.33704967 188.4509185 323.62903001 188.51360514 319.92034912 188.58383179 C312.67966984 188.73273817 305.44570461 188.97070725 298.20941162 189.26742554 Z M17.20941162 285.26742554 C11.56976445 292.55799507 8.81192304 299.99077921 9.27191162 309.20492554 C10.43736971 318.11235525 15.34318591 326.39538412 22.39691162 331.89242554 C29.68630781 336.79845227 37.50955326 338.37177991 46.20941162 337.26742554 C55.90332337 334.63521008 62.49533056 329.99666201 67.94769287 321.64633179 C72.10397162 313.80988053 72.56650132 304.96566014 70.52191162 296.38070679 C67.2444671 287.46332648 61.66164199 281.51011372 53.20941162 277.26742554 C40.18498382 272.1068032 26.9145706 275.54402378 17.20941162 285.26742554 Z M294.20941162 286.26742554 C288.04900686 294.37157124 286.199099 302.13872175 287.20941162 312.26742554 C289.35713242 321.21840564 294.58781038 328.07612859 302.20941162 333.14242554 C309.75259933 337.43423923 317.57304293 338.57839151 326.01409912 336.61508179 C334.51017116 333.87327461 340.54667061 329.5106057 345.08441162 321.76742554 C349.69461134 312.59359378 350.43862856 304.40672527 347.24456787 294.72055054 C343.67612102 286.2640048 336.77377435 280.10111431 328.45941162 276.39242554 C315.56351805 272.16965254 303.1062621 276.49872334 294.20941162 286.26742554 Z M-45.79058838 290.26742554 C-46.45290391 296.89551075 -46.45290391 296.89551075 -43.78594971 300.17440796 C-40.06972984 302.77112757 -37.23375717 302.91275744 -32.86480713 302.75570679 C-32.11721634 302.74863205 -31.36962555 302.74155731 -30.59938049 302.73426819 C-28.22457436 302.70640198 -25.85217487 302.64368685 -23.47808838 302.57992554 C-21.86288819 302.55483222 -20.24765084 302.53202085 -18.63238525 302.51156616 C-14.68420018 302.45660201 -10.73780149 302.3703908 -6.79058838 302.26742554 C-6.13058838 298.30742554 -5.47058838 294.34742554 -4.79058838 290.26742554 C-18.32058838 290.26742554 -31.85058838 290.26742554 -45.79058838 290.26742554 Z " fill="#000000" transform="translate(116.79058837890625,98.73257446289063)"/>
<path d="M0 0 C1.02806763 -0.0038269 2.05613525 -0.00765381 3.11535645 -0.01159668 C5.28736348 -0.01431674 7.45940323 -0.00694906 9.63134766 0.00976562 C12.95679729 0.03117305 16.28008635 0.00996622 19.60546875 -0.015625 C21.7161506 -0.01298174 23.82683111 -0.00785681 25.9375 0 C26.93237427 -0.00809692 27.92724854 -0.01619385 28.95227051 -0.02453613 C35.83282366 0.06897319 35.83282366 0.06897319 39.09375 2.43945312 C40.57706349 4.69602805 41.01059774 5.85299493 40.96875 8.53125 C40.9790625 9.19125 40.989375 9.85125 41 10.53125 C40.17043515 13.65431768 39.10914212 14.61185781 36.46875 16.53125 C32.96369429 17.14547459 29.48837948 17.09139933 25.9375 17.0625 C24.90943237 17.0663269 23.88136475 17.07015381 22.82214355 17.07409668 C20.65013652 17.07681674 18.47809677 17.06944906 16.30615234 17.05273438 C12.98070271 17.03132695 9.65741365 17.05253378 6.33203125 17.078125 C4.2213494 17.07548174 2.11066889 17.07035681 0 17.0625 C-1.4923114 17.07464539 -1.4923114 17.07464539 -3.01477051 17.08703613 C-9.89532366 16.99352681 -9.89532366 16.99352681 -13.15625 14.62304688 C-14.63956349 12.36647195 -15.07309774 11.20950507 -15.03125 8.53125 C-15.04671875 7.54125 -15.04671875 7.54125 -15.0625 6.53125 C-13.07733233 -0.9423224 -6.32474275 -0.05147481 0 0 Z " fill="#000000" transform="translate(16.53125,186.46875)"/>
</svg>
